<svg version="1.1" xmlns="http://www.w3.org/2000/svg" xmlns:xlink="http://www.w3.org/1999/xlink" width="500" height="500" style="width: 500px; height: 500px;"><defs><clipPath id="TciVvcTTZTXH"><path fill="none" stroke="none" d=" M 84 42 L 470 42 L 470 446 L 84 446 L 84 42 Z"/></clipPath><clipPath id="yskUnQwhuFSy"><path fill="none" stroke="none" d=" M 84 42 L 470 42 L 470 446 L 84 446 L 84 42 Z"/></clipPath></defs><g transform="scale(1,1) translate(0.5,0.5)"><rect fill="#ffffff" stroke="none" x="0" y="0" width="500" height="500"/><rect fill="#FFFFFF" stroke="none" x="84" y="42" width="386" height="404"/><rect fill="#ffffff" stroke="none" x="84" y="42" width="386" height="404"/><g><rect fill="none" stroke="#e5e5e5" x="84" y="42" width="386" height="404" stroke-linejoin="bevel" stroke-miterlimit="10"/></g><g clip-path="url(#TciVvcTTZTXH)"><g><g><path fill="none" stroke="#e5e5e5" paint-order="fill stroke markers" d=" M 141 446 L 141 42" stroke-linejoin="bevel" stroke-miterlimit="10"/><path fill="none" stroke="#e5e5e5" paint-order="fill stroke markers" d=" M 219 446 L 219 42" stroke-linejoin="bevel" stroke-miterlimit="10"/><path fill="none" stroke="#e5e5e5" paint-order="fill stroke markers" d=" M 296 446 L 296 42" stroke-linejoin="bevel" stroke-miterlimit="10"/><path fill="none" stroke="#e5e5e5" paint-order="fill stroke markers" d=" M 374 446 L 374 42" stroke-linejoin="bevel" stroke-miterlimit="10"/><path fill="none" stroke="#e5e5e5" paint-order="fill stroke markers" d=" M 452 446 L 452 42" stroke-linejoin="bevel" stroke-miterlimit="10"/></g><g><path fill="none" stroke="#e5e5e5" paint-order="fill stroke markers" d=" M 84 428 L 470 428" stroke-linejoin="bevel" stroke-miterlimit="10"/><path fill="none" stroke="#e5e5e5" paint-order="fill stroke markers" d=" M 84 350 L 470 350" stroke-linejoin="bevel" stroke-miterlimit="10"/><path fill="none" stroke="#e5e5e5" paint-order="fill stroke markers" d=" M 84 273 L 470 273" stroke-linejoin="bevel" stroke-miterlimit="10"/><path fill="none" stroke="#e5e5e5" paint-order="fill stroke markers" d=" M 84 196 L 470 196" stroke-linejoin="bevel" stroke-miterlimit="10"/><path fill="none" stroke="#e5e5e5" paint-order="fill stroke markers" d=" M 84 119 L 470 119" stroke-linejoin="bevel" stroke-miterlimit="10"/></g><g><path fill="none" stroke="none"/><rect fill="red" stroke="none" x="101.54545454545458" y="413.1832514762933" width="38.989898989899004" height="14.453112160070305"/><path fill="none" stroke="black" paint-order="fill stroke markers" d=" M 101.54545454545458 413.1832514762933 L 140.53535353535358 413.1832514762933 L 140.53535353535358 427.6363636363636 L 101.54545454545458 427.6363636363636 L 101.54545454545458 413.1832514762933 Z" stroke-linejoin="bevel" stroke-miterlimit="10"/><rect fill="red" stroke="none" x="140.53535353535358" y="149.30586504099222" width="38.98989898989896" height="278.3304985953714"/><path fill="none" stroke="black" paint-order="fill stroke markers" d=" M 140.53535353535358 149.30586504099222 L 179.52525252525254 149.30586504099222 L 179.52525252525254 427.6363636363636 L 140.53535353535358 427.6363636363636 L 140.53535353535358 149.30586504099222 Z" stroke-linejoin="bevel" stroke-miterlimit="10"/><rect fill="red" stroke="none" x="179.52525252525254" y="60.363636363636374" width="38.98989898989902" height="367.27272727272725"/><path fill="none" stroke="black" paint-order="fill stroke markers" d=" M 179.52525252525254 60.363636363636374 L 218.51515151515156 60.363636363636374 L 218.51515151515156 427.6363636363636 L 179.52525252525254 427.6363636363636 L 179.52525252525254 60.363636363636374 Z" stroke-linejoin="bevel" stroke-miterlimit="10"/><rect fill="red" stroke="none" x="218.51515151515156" y="271.60142947235653" width="38.98989898989896" height="156.0349341640071"/><path fill="none" stroke="black" paint-order="fill stroke markers" d=" M 218.51515151515156 271.60142947235653 L 257.5050505050505 271.60142947235653 L 257.5050505050505 427.6363636363636 L 218.51515151515156 427.6363636363636 L 218.51515151515156 271.60142947235653 Z" stroke-linejoin="bevel" stroke-miterlimit="10"/><rect fill="red" stroke="none" x="257.5050505050505" y="346.4070938521222" width="38.98989898989902" height="81.22926978424141"/><path fill="none" stroke="black" paint-order="fill stroke markers" d=" M 257.5050505050505 346.4070938521222 L 296.49494949494954 346.4070938521222 L 296.49494949494954 427.6363636363636 L 257.5050505050505 427.6363636363636 L 257.5050505050505 346.4070938521222 Z" stroke-linejoin="bevel" stroke-miterlimit="10"/><rect fill="red" stroke="none" x="296.49494949494954" y="387.9675119918971" width="38.98989898989896" height="39.66885164446654"/><path fill="none" stroke="black" paint-order="fill stroke markers" d=" M 296.49494949494954 387.9675119918971 L 335.4848484848485 387.9675119918971 L 335.4848484848485 427.6363636363636 L 296.49494949494954 427.6363636363636 L 296.49494949494954 387.9675119918971 Z" stroke-linejoin="bevel" stroke-miterlimit="10"/><rect fill="red" stroke="none" x="335.4848484848485" y="418.0781623253769" width="38.98989898989902" height="9.558201310986703"/><path fill="none" stroke="black" paint-order="fill stroke markers" d=" M 335.4848484848485 418.0781623253769 L 374.4747474747475 418.0781623253769 L 374.4747474747475 427.6363636363636 L 335.4848484848485 427.6363636363636 L 335.4848484848485 418.0781623253769 Z" stroke-linejoin="bevel" stroke-miterlimit="10"/><rect fill="red" stroke="none" x="374.4747474747475" y="425.5517801517381" width="38.98989898989896" height="2.0845834846255116"/><path fill="none" stroke="black" paint-order="fill stroke markers" d=" M 374.4747474747475 425.5517801517381 L 413.4646464646465 425.5517801517381 L 413.4646464646465 427.6363636363636 L 374.4747474747475 427.6363636363636 L 374.4747474747475 425.5517801517381 Z" stroke-linejoin="bevel" stroke-miterlimit="10"/><rect fill="red" stroke="none" x="413.4646464646465" y="425.9455348099451" width="38.98989898989902" height="1.6908288264185103"/><path fill="none" stroke="black" paint-order="fill stroke markers" d=" M 413.4646464646465 425.9455348099451 L 452.4545454545455 425.9455348099451 L 452.4545454545455 427.6363636363636 L 413.4646464646465 427.6363636363636 L 413.4646464646465 425.9455348099451 Z" stroke-linejoin="bevel" stroke-miterlimit="10"/></g></g></g><g clip-path="url(#yskUnQwhuFSy)"><g/></g><g><g fill="#444444"><path fill="none" stroke="black" paint-order="fill stroke markers" d=" M 84 446 L 470 446" stroke-linejoin="bevel" stroke-miterlimit="10"/><path fill="none" stroke="black" paint-order="fill stroke markers" d=" M 141 452 L 141 444" stroke-linejoin="bevel" stroke-miterlimit="10"/><path fill="none" stroke="black" paint-order="fill stroke markers" d=" M 219 452 L 219 444" stroke-linejoin="bevel" stroke-miterlimit="10"/><path fill="none" stroke="black" paint-order="fill stroke markers" d=" M 296 452 L 296 444" stroke-linejoin="bevel" stroke-miterlimit="10"/><path fill="none" stroke="black" paint-order="fill stroke markers" d=" M 374 452 L 374 444" stroke-linejoin="bevel" stroke-miterlimit="10"/><path fill="none" stroke="black" paint-order="fill stroke markers" d=" M 452 452 L 452 444" stroke-linejoin="bevel" stroke-miterlimit="10"/><path fill="none" stroke="black" paint-order="fill stroke markers" d=" M 125 450 L 125 446" stroke-linejoin="bevel" stroke-miterlimit="10"/><path fill="none" stroke="black" paint-order="fill stroke markers" d=" M 109 450 L 109 446" stroke-linejoin="bevel" stroke-miterlimit="10"/><path fill="none" stroke="black" paint-order="fill stroke markers" d=" M 94 450 L 94 446" stroke-linejoin="bevel" stroke-miterlimit="10"/><path fill="none" stroke="black" paint-order="fill stroke markers" d=" M 141 450 L 141 446" stroke-linejoin="bevel" stroke-miterlimit="10"/><path fill="none" stroke="black" paint-order="fill stroke markers" d=" M 156 450 L 156 446" stroke-linejoin="bevel" stroke-miterlimit="10"/><path fill="none" stroke="black" paint-order="fill stroke markers" d=" M 172 450 L 172 446" stroke-linejoin="bevel" stroke-miterlimit="10"/><path fill="none" stroke="black" paint-order="fill stroke markers" d=" M 187 450 L 187 446" stroke-linejoin="bevel" stroke-miterlimit="10"/><path fill="none" stroke="black" paint-order="fill stroke markers" d=" M 203 450 L 203 446" stroke-linejoin="bevel" stroke-miterlimit="10"/><path fill="none" stroke="black" paint-order="fill stroke markers" d=" M 219 450 L 219 446" stroke-linejoin="bevel" stroke-miterlimit="10"/><path fill="none" stroke="black" paint-order="fill stroke markers" d=" M 234 450 L 234 446" stroke-linejoin="bevel" stroke-miterlimit="10"/><path fill="none" stroke="black" paint-order="fill stroke markers" d=" M 250 450 L 250 446" stroke-linejoin="bevel" stroke-miterlimit="10"/><path fill="none" stroke="black" paint-order="fill stroke markers" d=" M 265 450 L 265 446" stroke-linejoin="bevel" stroke-miterlimit="10"/><path fill="none" stroke="black" paint-order="fill stroke markers" d=" M 281 450 L 281 446" stroke-linejoin="bevel" stroke-miterlimit="10"/><path fill="none" stroke="black" paint-order="fill stroke markers" d=" M 296 450 L 296 446" stroke-linejoin="bevel" stroke-miterlimit="10"/><path fill="none" stroke="black" paint-order="fill stroke markers" d=" M 312 450 L 312 446" stroke-linejoin="bevel" stroke-miterlimit="10"/><path fill="none" stroke="black" paint-order="fill stroke markers" d=" M 328 450 L 328 446" stroke-linejoin="bevel" stroke-miterlimit="10"/><path fill="none" stroke="black" paint-order="fill stroke markers" d=" M 343 450 L 343 446" stroke-linejoin="bevel" stroke-miterlimit="10"/><path fill="none" stroke="black" paint-order="fill stroke markers" d=" M 359 450 L 359 446" stroke-linejoin="bevel" stroke-miterlimit="10"/><path fill="none" stroke="black" paint-order="fill stroke markers" d=" M 374 450 L 374 446" stroke-linejoin="bevel" stroke-miterlimit="10"/><path fill="none" stroke="black" paint-order="fill stroke markers" d=" M 390 450 L 390 446" stroke-linejoin="bevel" stroke-miterlimit="10"/><path fill="none" stroke="black" paint-order="fill stroke markers" d=" M 406 450 L 406 446" stroke-linejoin="bevel" stroke-miterlimit="10"/><path fill="none" stroke="black" paint-order="fill stroke markers" d=" M 421 450 L 421 446" stroke-linejoin="bevel" stroke-miterlimit="10"/><path fill="none" stroke="black" paint-order="fill stroke markers" d=" M 437 450 L 437 446" stroke-linejoin="bevel" stroke-miterlimit="10"/><path fill="none" stroke="black" paint-order="fill stroke markers" d=" M 452 450 L 452 446" stroke-linejoin="bevel" stroke-miterlimit="10"/><path fill="" stroke="black" paint-order="fill stroke markers" d=" M 468 450 L 468 446" stroke-linejoin="bevel" stroke-miterlimit="10"/><g transform="translate(141,457) rotate(0,0,0)"><text fill="" stroke="none" font-family="helvetica" font-size="12pt" font-style="normal" font-weight="normal" text-decoration="normal" x="0" y="0" text-anchor="middle" dominant-baseline="hanging">20</text><g transform="rotate(0,0,0) translate(-141,-457) translate(219,457) rotate(0,0,0)"><text fill="" stroke="none" font-family="helvetica" font-size="12pt" font-style="normal" font-weight="normal" text-decoration="normal" x="0" y="0" text-anchor="middle" dominant-baseline="hanging">40</text><g transform="rotate(0,0,0) translate(-219,-457) translate(296,457) rotate(0,0,0)"><text fill="" stroke="none" font-family="helvetica" font-size="12pt" font-style="normal" font-weight="normal" text-decoration="normal" x="0" y="0" text-anchor="middle" dominant-baseline="hanging">60</text><g transform="rotate(0,0,0) translate(-296,-457) translate(374,457) rotate(0,0,0)"><text fill="" stroke="none" font-family="helvetica" font-size="12pt" font-style="normal" font-weight="normal" text-decoration="normal" x="0" y="0" text-anchor="middle" dominant-baseline="hanging">80</text><g transform="rotate(0,0,0) translate(-374,-457) translate(452,457) rotate(0,0,0)"><text fill="" stroke="none" font-family="helvetica" font-size="12pt" font-style="normal" font-weight="normal" text-decoration="normal" x="0" y="0" text-anchor="middle" dominant-baseline="hanging">100</text><g transform="rotate(0,0,0) translate(-452,-457) translate(277,481) rotate(0,0,0)"><text fill="" stroke="none" font-family="helvetica" font-size="12pt" font-style="italic" font-weight="normal" text-decoration="normal" x="0" y="0" text-anchor="middle" dominant-baseline="hanging">Age (years)</text><g transform="rotate(0,0,0) translate(-277,-481)"/></g></g></g></g></g></g></g><g fill="#444444"><path fill="none" stroke="black" paint-order="fill stroke markers" d=" M 84 446 L 84 42" stroke-linejoin="bevel" stroke-miterlimit="10"/><path fill="none" stroke="black" paint-order="fill stroke markers" d=" M 78 428 L 86 428" stroke-linejoin="bevel" stroke-miterlimit="10"/><path fill="none" stroke="black" paint-order="fill stroke markers" d=" M 78 350 L 86 350" stroke-linejoin="bevel" stroke-miterlimit="10"/><path fill="none" stroke="black" paint-order="fill stroke markers" d=" M 78 273 L 86 273" stroke-linejoin="bevel" stroke-miterlimit="10"/><path fill="none" stroke="black" paint-order="fill stroke markers" d=" M 78 196 L 86 196" stroke-linejoin="bevel" stroke-miterlimit="10"/><path fill="none" stroke="black" paint-order="fill stroke markers" d=" M 78 119 L 86 119" stroke-linejoin="bevel" stroke-miterlimit="10"/><path fill="none" stroke="black" paint-order="fill stroke markers" d=" M 80 443 L 84 443" stroke-linejoin="bevel" stroke-miterlimit="10"/><path fill="none" stroke="black" paint-order="fill stroke markers" d=" M 80 428 L 84 428" stroke-linejoin="bevel" stroke-miterlimit="10"/><path fill="none" stroke="black" paint-order="fill stroke markers" d=" M 80 412 L 84 412" stroke-linejoin="bevel" stroke-miterlimit="10"/><path fill="none" stroke="black" paint-order="fill stroke markers" d=" M 80 397 L 84 397" stroke-linejoin="bevel" stroke-miterlimit="10"/><path fill="none" stroke="black" paint-order="fill stroke markers" d=" M 80 381 L 84 381" stroke-linejoin="bevel" stroke-miterlimit="10"/><path fill="none" stroke="black" paint-order="fill stroke markers" d=" M 80 366 L 84 366" stroke-linejoin="bevel" stroke-miterlimit="10"/><path fill="none" stroke="black" paint-order="fill stroke markers" d=" M 80 350 L 84 350" stroke-linejoin="bevel" stroke-miterlimit="10"/><path fill="none" stroke="black" paint-order="fill stroke markers" d=" M 80 335 L 84 335" stroke-linejoin="bevel" stroke-miterlimit="10"/><path fill="none" stroke="black" paint-order="fill stroke markers" d=" M 80 320 L 84 320" stroke-linejoin="bevel" stroke-miterlimit="10"/><path fill="none" stroke="black" paint-order="fill stroke markers" d=" M 80 304 L 84 304" stroke-linejoin="bevel" stroke-miterlimit="10"/><path fill="none" stroke="black" paint-order="fill stroke markers" d=" M 80 289 L 84 289" stroke-linejoin="bevel" stroke-miterlimit="10"/><path fill="none" stroke="black" paint-order="fill stroke markers" d=" M 80 273 L 84 273" stroke-linejoin="bevel" stroke-miterlimit="10"/><path fill="none" stroke="black" paint-order="fill stroke markers" d=" M 80 258 L 84 258" stroke-linejoin="bevel" stroke-miterlimit="10"/><path fill="none" stroke="black" paint-order="fill stroke markers" d=" M 80 242 L 84 242" stroke-linejoin="bevel" stroke-miterlimit="10"/><path fill="none" stroke="black" paint-order="fill stroke markers" d=" M 80 227 L 84 227" stroke-linejoin="bevel" stroke-miterlimit="10"/><path fill="none" stroke="black" paint-order="fill stroke markers" d=" M 80 211 L 84 211" stroke-linejoin="bevel" stroke-miterlimit="10"/><path fill="none" stroke="black" paint-order="fill stroke markers" d=" M 80 196 L 84 196" stroke-linejoin="bevel" stroke-miterlimit="10"/><path fill="none" stroke="black" paint-order="fill stroke markers" d=" M 80 181 L 84 181" stroke-linejoin="bevel" stroke-miterlimit="10"/><path fill="none" stroke="black" paint-order="fill stroke markers" d=" M 80 165 L 84 165" stroke-linejoin="bevel" stroke-miterlimit="10"/><path fill="none" stroke="black" paint-order="fill stroke markers" d=" M 80 150 L 84 150" stroke-linejoin="bevel" stroke-miterlimit="10"/><path fill="none" stroke="black" paint-order="fill stroke markers" d=" M 80 134 L 84 134" stroke-linejoin="bevel" stroke-miterlimit="10"/><path fill="none" stroke="black" paint-order="fill stroke markers" d=" M 80 119 L 84 119" stroke-linejoin="bevel" stroke-miterlimit="10"/><path fill="none" stroke="black" paint-order="fill stroke markers" d=" M 80 103 L 84 103" stroke-linejoin="bevel" stroke-miterlimit="10"/><path fill="none" stroke="black" paint-order="fill stroke markers" d=" M 80 88 L 84 88" stroke-linejoin="bevel" stroke-miterlimit="10"/><path fill="none" stroke="black" paint-order="fill stroke markers" d=" M 80 72 L 84 72" stroke-linejoin="bevel" stroke-miterlimit="10"/><path fill="" stroke="black" paint-order="fill stroke markers" d=" M 80 57 L 84 57" stroke-linejoin="bevel" stroke-miterlimit="10"/><g transform="translate(73,428) rotate(0,0,0)"><text fill="" stroke="none" font-family="helvetica" font-size="12pt" font-style="normal" font-weight="normal" text-decoration="normal" x="0" y="0" text-anchor="end" dominant-baseline="central">0</text><g transform="rotate(0,0,0) translate(-73,-428) translate(73,350) rotate(0,0,0)"><text fill="" stroke="none" font-family="helvetica" font-size="12pt" font-style="normal" font-weight="normal" text-decoration="normal" x="0" y="0" text-anchor="end" dominant-baseline="central">10000</text><g transform="rotate(0,0,0) translate(-73,-350) translate(73,273) rotate(0,0,0)"><text fill="" stroke="none" font-family="helvetica" font-size="12pt" font-style="normal" font-weight="normal" text-decoration="normal" x="0" y="0" text-anchor="end" dominant-baseline="central">20000</text><g transform="rotate(0,0,0) translate(-73,-273) translate(73,196) rotate(0,0,0)"><text fill="" stroke="none" font-family="helvetica" font-size="12pt" font-style="normal" font-weight="normal" text-decoration="normal" x="0" y="0" text-anchor="end" dominant-baseline="central">30000</text><g transform="rotate(0,0,0) translate(-73,-196) translate(73,119) rotate(0,0,0)"><text fill="" stroke="none" font-family="helvetica" font-size="12pt" font-style="normal" font-weight="normal" text-decoration="normal" x="0" y="0" text-anchor="end" dominant-baseline="central">40000</text><g transform="rotate(0,0,0) translate(-73,-119) translate(19,244) rotate(-90,0,0)"><text fill="" stroke="none" font-family="helvetica" font-size="12pt" font-style="italic" font-weight="normal" text-decoration="normal" x="0" y="0" text-anchor="middle" dominant-baseline="alphabetic">Count</text><g transform="rotate(90,0,0) translate(-19,-244)"/></g></g></g></g></g></g></g><g fill="#444444"><path fill="" stroke="none" d=""/><g transform="translate(277,37)"><path fill="none" stroke="none"/><text fill="" stroke="none" font-family="helvetica" font-size="18pt" font-style="normal" font-weight="bold" text-decoration="normal" x="0" y="0" text-anchor="middle" dominant-baseline="text-after-edge">Airnb Users Age Distribution</text></g></g></g></g></svg>